<?xml version='1.0' encoding='UTF-8' standalone='no'?>
<!-- Created with Fritzing (http://www.fritzing.org/) -->
<svg xmlns="http://www.w3.org/2000/svg" width="0.7in" x="0in" version="1.2" y="0in"  height="0.6in" viewBox="0 0 700 600" baseProfile="tiny">
    <desc >
        <referenceFile >TSSOP-14_breadboard.svg</referenceFile>
    </desc>
    <g gorn="0.1"  id="breadboard" stroke-width="0">
        <g gorn="0.1.0"  id="icon" stroke-width="0">
            <path fill="#1F7A34"  stroke="none" stroke-width="0" d="M0,0L0,270A30,30,0,0,1,0,330L0,600L700,600L700,0L0,0z"/>
            <g  transform="matrix(1, 0, 0, 1, 251, 130.701)">
                <g  stroke-width="0">
                    <g  transform="matrix(0.5, 0, 0, 0.5, 55.75, 84.6496)">
                        <g  stroke-width="0">
                            <rect width="13.7795" x="4.61024" y="251.976" fill="#8c8c8c"  height="86.6142" stroke="none" stroke-width="0"/>
                            <rect width="13.7795" x="29.6101" y="251.976" fill="#8c8c8c"  height="86.6142" stroke="none" stroke-width="0"/>
                            <rect width="13.7795" x="54.6101" y="251.976" fill="#8c8c8c"  height="86.6142" stroke="none" stroke-width="0"/>
                            <rect width="13.7795" x="79.6101" y="251.976" fill="#8c8c8c"  height="86.6142" stroke="none" stroke-width="0"/>
                            <rect width="13.7795" x="104.61" y="251.976" fill="#8c8c8c"  height="86.6142" stroke="none" stroke-width="0"/>
                            <rect width="13.7795" x="129.61" y="251.976" fill="#8c8c8c"  height="86.6142" stroke="none" stroke-width="0"/>
                            <rect width="13.7795" x="154.61" y="251.976" fill="#8c8c8c"  height="86.6142" stroke="none" stroke-width="0"/>
                            <g  transform="matrix(-1, 0, 0, -1, 323, 86.6299)">
                                <g  stroke-width="0">
                                    <rect width="13.7795" x="154.61" y="0.0078745" fill="#8c8c8c"  height="86.6142" stroke="none" stroke-width="0"/>
                                </g>
                            </g>
                            <g  transform="matrix(-1, 0, 0, -1, 273, 86.6299)">
                                <g  stroke-width="0">
                                    <rect width="13.7795" x="129.61" y="0.0078745" fill="#8c8c8c"  height="86.6142" stroke="none" stroke-width="0"/>
                                </g>
                            </g>
                            <g  transform="matrix(-1, 0, 0, -1, 223, 86.6299)">
                                <g  stroke-width="0">
                                    <rect width="13.7795" x="104.61" y="0.0078745" fill="#8c8c8c"  height="86.6142" stroke="none" stroke-width="0"/>
                                </g>
                            </g>
                            <g  transform="matrix(-1, 0, 0, -1, 173, 86.6299)">
                                <g  stroke-width="0">
                                    <rect width="13.7795" x="79.6101" y="0.0078745" fill="#8c8c8c"  height="86.6142" stroke="none" stroke-width="0"/>
                                </g>
                            </g>
                            <g  transform="matrix(-1, 0, 0, -1, 123, 86.6299)">
                                <g  stroke-width="0">
                                    <rect width="13.7795" x="54.6101" y="0.0078745" fill="#8c8c8c"  height="86.6142" stroke="none" stroke-width="0"/>
                                </g>
                            </g>
                            <g  transform="matrix(-1, 0, 0, -1, 73, 86.6299)">
                                <g  stroke-width="0">
                                    <rect width="13.7795" x="29.6101" y="0.0078745" fill="#8c8c8c"  height="86.6142" stroke="none" stroke-width="0"/>
                                </g>
                            </g>
                            <g  transform="matrix(-1, 0, 0, -1, 23, 86.6299)">
                                <g  stroke-width="0">
                                    <rect width="13.7795" x="4.61024" y="0.0078745" fill="#8c8c8c"  height="86.6142" stroke="none" stroke-width="0"/>
                                </g>
                            </g>
                            <rect width="167.913" x="2.54331" y="92.5276" fill="#303030"  height="153.543" stroke="none" stroke-width="0"/>
                            <polygon fill="#1f1f1f" points="2.54331,92.5276,170.457,92.5276,160.457,102.528,12.5433,102.528"  stroke-width="0"/>
                            <polygon fill="#1f1f1f" points="2.54331,246.071,170.457,246.071,160.457,236.071,12.5433,236.071"  stroke-width="0"/>
                            <polygon fill="#000000" points="2.54331,92.5276,2.54331,246.071,12.5433,236.071,12.5433,102.528"  stroke-width="0"/>
                            <polygon fill="#3d3d3d" points="170.457,92.5276,170.457,246.071,160.457,236.071,160.457,102.528"  stroke-width="0"/>
                            <circle fill="#1f1f1f" cx="32.5433"  cy="216.071" stroke="none" r="10" stroke-width="0"/>
                        </g>
                    </g>
                </g>
            </g>
            <text x="50" y="324.375" font-family="OCRA" fill="white" gorn="0.1.0.2"  text-anchor="start" stroke="none" id="label" stroke-width="0" font-size="65">TSSOP-14</text>
            <g  transform="matrix(1, 0, 0, 1, 63.5, 526.05)">
                <g  stroke-width="0">
                    <g  transform="rotate(-90)">
                        <g  stroke-width="0">
                            <text x="0" y="0" font-family="OCRA" fill="white"  text-anchor="start" stroke="none" stroke-width="0" font-size="45">1</text>
                        </g>
                    </g>
                </g>
            </g>
            <g  transform="matrix(1, 0, 0, 1, 63.5, 73.95)">
                <g  stroke-width="0">
                    <g  transform="rotate(-90)">
                        <g  stroke-width="0">
                            <text x="0" y="0" font-family="OCRA" fill="white"  text-anchor="end" stroke="none" stroke-width="0" font-size="45">14</text>
                        </g>
                    </g>
                </g>
            </g>
            <g  transform="matrix(1, 0, 0, 1, 163.5, 526.05)">
                <g  stroke-width="0">
                    <g  transform="rotate(-90)">
                        <g  stroke-width="0">
                            <text x="0" y="0" font-family="OCRA" fill="white"  text-anchor="start" stroke="none" stroke-width="0" font-size="45">2</text>
                        </g>
                    </g>
                </g>
            </g>
            <g  transform="matrix(1, 0, 0, 1, 163.5, 73.95)">
                <g  stroke-width="0">
                    <g  transform="rotate(-90)">
                        <g  stroke-width="0">
                            <text x="0" y="0" font-family="OCRA" fill="white"  text-anchor="end" stroke="none" stroke-width="0" font-size="45">13</text>
                        </g>
                    </g>
                </g>
            </g>
            <g  transform="matrix(1, 0, 0, 1, 263.5, 526.05)">
                <g  stroke-width="0">
                    <g  transform="rotate(-90)">
                        <g  stroke-width="0">
                            <text x="0" y="0" font-family="OCRA" fill="white"  text-anchor="start" stroke="none" stroke-width="0" font-size="45">3</text>
                        </g>
                    </g>
                </g>
            </g>
            <g  transform="matrix(1, 0, 0, 1, 263.5, 73.95)">
                <g  stroke-width="0">
                    <g  transform="rotate(-90)">
                        <g  stroke-width="0">
                            <text x="0" y="0" font-family="OCRA" fill="white"  text-anchor="end" stroke="none" stroke-width="0" font-size="45">12</text>
                        </g>
                    </g>
                </g>
            </g>
            <g  transform="matrix(1, 0, 0, 1, 363.5, 526.05)">
                <g  stroke-width="0">
                    <g  transform="rotate(-90)">
                        <g  stroke-width="0">
                            <text x="0" y="0" font-family="OCRA" fill="white"  text-anchor="start" stroke="none" stroke-width="0" font-size="45">4</text>
                        </g>
                    </g>
                </g>
            </g>
            <g  transform="matrix(1, 0, 0, 1, 363.5, 73.95)">
                <g  stroke-width="0">
                    <g  transform="rotate(-90)">
                        <g  stroke-width="0">
                            <text x="0" y="0" font-family="OCRA" fill="white"  text-anchor="end" stroke="none" stroke-width="0" font-size="45">11</text>
                        </g>
                    </g>
                </g>
            </g>
            <g  transform="matrix(1, 0, 0, 1, 463.5, 526.05)">
                <g  stroke-width="0">
                    <g  transform="rotate(-90)">
                        <g  stroke-width="0">
                            <text x="0" y="0" font-family="OCRA" fill="white"  text-anchor="start" stroke="none" stroke-width="0" font-size="45">5</text>
                        </g>
                    </g>
                </g>
            </g>
            <g  transform="matrix(1, 0, 0, 1, 463.5, 73.95)">
                <g  stroke-width="0">
                    <g  transform="rotate(-90)">
                        <g  stroke-width="0">
                            <text x="0" y="0" font-family="OCRA" fill="white"  text-anchor="end" stroke="none" stroke-width="0" font-size="45">10</text>
                        </g>
                    </g>
                </g>
            </g>
            <g  transform="matrix(1, 0, 0, 1, 563.5, 526.05)">
                <g  stroke-width="0">
                    <g  transform="rotate(-90)">
                        <g  stroke-width="0">
                            <text x="0" y="0" font-family="OCRA" fill="white"  text-anchor="start" stroke="none" stroke-width="0" font-size="45">6</text>
                        </g>
                    </g>
                </g>
            </g>
            <g  transform="matrix(1, 0, 0, 1, 563.5, 73.95)">
                <g  stroke-width="0">
                    <g  transform="rotate(-90)">
                        <g  stroke-width="0">
                            <text x="0" y="0" font-family="OCRA" fill="white"  text-anchor="end" stroke="none" stroke-width="0" font-size="45">9</text>
                        </g>
                    </g>
                </g>
            </g>
            <g  transform="matrix(1, 0, 0, 1, 663.5, 526.05)">
                <g  stroke-width="0">
                    <g  transform="rotate(-90)">
                        <g  stroke-width="0">
                            <text x="0" y="0" font-family="OCRA" fill="white"  text-anchor="start" stroke="none" stroke-width="0" font-size="45">7</text>
                        </g>
                    </g>
                </g>
            </g>
            <g  transform="matrix(1, 0, 0, 1, 663.5, 73.95)">
                <g  stroke-width="0">
                    <g  transform="rotate(-90)">
                        <g  stroke-width="0">
                            <text x="0" y="0" font-family="OCRA" fill="white"  text-anchor="end" stroke="none" stroke-width="0" font-size="45">8</text>
                        </g>
                    </g>
                </g>
            </g>
        </g>
        <g  transform="matrix(1, 0, 0, 1, 34.035, 534.05)">
            <g gorn="0.1.1.0"  id="connector0pin" stroke-width="0">
                <rect width="31.93" x="0" y="0" fill="#8D8C8C"  height="31.9" stroke-width="0"/>
                <rect width="16.4442" x="7.79153" y="7.73544" fill="#8C8663"  height="16.4151" stroke-width="0"/>
                <polygon fill="#B8AF82" points="0,31.9,7.79153,24.1368,7.79153,6.97162,0,0"  stroke-width="0"/>
                <polygon fill="#80795B" points="24.2079,7.76321,7.90264,7.76321,0,0,31.93,0"  stroke-width="0"/>
                <polygon fill="#5E5B43" points="24.2079,24.1368,24.2079,7.76321,31.93,0,31.93,31.9"  stroke-width="0"/>
                <polygon fill="#9A916C" points="0,31.9,7.87486,24.1368,24.2079,24.1368,31.93,31.9"  stroke-width="0"/>
            </g>
        </g>
        <g  transform="matrix(1, 0, 0, 1, 34.035, 34.05)">
            <g gorn="0.1.2.0"  id="connector13pin" stroke-width="0">
                <rect width="31.93" x="0" y="0" fill="#8D8C8C"  height="31.9" stroke-width="0"/>
                <rect width="16.4442" x="7.79153" y="7.73544" fill="#8C8663"  height="16.4151" stroke-width="0"/>
                <polygon fill="#B8AF82" points="0,31.9,7.79153,24.1368,7.79153,6.97162,0,0"  stroke-width="0"/>
                <polygon fill="#80795B" points="24.2079,7.76321,7.90264,7.76321,0,0,31.93,0"  stroke-width="0"/>
                <polygon fill="#5E5B43" points="24.2079,24.1368,24.2079,7.76321,31.93,0,31.93,31.9"  stroke-width="0"/>
                <polygon fill="#9A916C" points="0,31.9,7.87486,24.1368,24.2079,24.1368,31.93,31.9"  stroke-width="0"/>
            </g>
        </g>
        <g  transform="matrix(1, 0, 0, 1, 134.035, 534.05)">
            <g gorn="0.1.3.0"  id="connector1pin" stroke-width="0">
                <rect width="31.93" x="0" y="0" fill="#8D8C8C"  height="31.9" stroke-width="0"/>
                <rect width="16.4442" x="7.79153" y="7.73544" fill="#8C8663"  height="16.4151" stroke-width="0"/>
                <polygon fill="#B8AF82" points="0,31.9,7.79153,24.1368,7.79153,6.97162,0,0"  stroke-width="0"/>
                <polygon fill="#80795B" points="24.2079,7.76321,7.90264,7.76321,0,0,31.93,0"  stroke-width="0"/>
                <polygon fill="#5E5B43" points="24.2079,24.1368,24.2079,7.76321,31.93,0,31.93,31.9"  stroke-width="0"/>
                <polygon fill="#9A916C" points="0,31.9,7.87486,24.1368,24.2079,24.1368,31.93,31.9"  stroke-width="0"/>
            </g>
        </g>
        <g  transform="matrix(1, 0, 0, 1, 134.035, 34.05)">
            <g gorn="0.1.4.0"  id="connector12pin" stroke-width="0">
                <rect width="31.93" x="0" y="0" fill="#8D8C8C"  height="31.9" stroke-width="0"/>
                <rect width="16.4442" x="7.79153" y="7.73544" fill="#8C8663"  height="16.4151" stroke-width="0"/>
                <polygon fill="#B8AF82" points="0,31.9,7.79153,24.1368,7.79153,6.97162,0,0"  stroke-width="0"/>
                <polygon fill="#80795B" points="24.2079,7.76321,7.90264,7.76321,0,0,31.93,0"  stroke-width="0"/>
                <polygon fill="#5E5B43" points="24.2079,24.1368,24.2079,7.76321,31.93,0,31.93,31.9"  stroke-width="0"/>
                <polygon fill="#9A916C" points="0,31.9,7.87486,24.1368,24.2079,24.1368,31.93,31.9"  stroke-width="0"/>
            </g>
        </g>
        <g  transform="matrix(1, 0, 0, 1, 234.035, 534.05)">
            <g gorn="0.1.5.0"  id="connector2pin" stroke-width="0">
                <rect width="31.93" x="0" y="0" fill="#8D8C8C"  height="31.9" stroke-width="0"/>
                <rect width="16.4442" x="7.79153" y="7.73544" fill="#8C8663"  height="16.4151" stroke-width="0"/>
                <polygon fill="#B8AF82" points="0,31.9,7.79153,24.1368,7.79153,6.97162,0,0"  stroke-width="0"/>
                <polygon fill="#80795B" points="24.2079,7.76321,7.90264,7.76321,0,0,31.93,0"  stroke-width="0"/>
                <polygon fill="#5E5B43" points="24.2079,24.1368,24.2079,7.76321,31.93,0,31.93,31.9"  stroke-width="0"/>
                <polygon fill="#9A916C" points="0,31.9,7.87486,24.1368,24.2079,24.1368,31.93,31.9"  stroke-width="0"/>
            </g>
        </g>
        <g  transform="matrix(1, 0, 0, 1, 234.035, 34.05)">
            <g gorn="0.1.6.0"  id="connector11pin" stroke-width="0">
                <rect width="31.93" x="0" y="0" fill="#8D8C8C"  height="31.9" stroke-width="0"/>
                <rect width="16.4442" x="7.79153" y="7.73544" fill="#8C8663"  height="16.4151" stroke-width="0"/>
                <polygon fill="#B8AF82" points="0,31.9,7.79153,24.1368,7.79153,6.97162,0,0"  stroke-width="0"/>
                <polygon fill="#80795B" points="24.2079,7.76321,7.90264,7.76321,0,0,31.93,0"  stroke-width="0"/>
                <polygon fill="#5E5B43" points="24.2079,24.1368,24.2079,7.76321,31.93,0,31.93,31.9"  stroke-width="0"/>
                <polygon fill="#9A916C" points="0,31.9,7.87486,24.1368,24.2079,24.1368,31.93,31.9"  stroke-width="0"/>
            </g>
        </g>
        <g  transform="matrix(1, 0, 0, 1, 334.035, 534.05)">
            <g gorn="0.1.7.0"  id="connector3pin" stroke-width="0">
                <rect width="31.93" x="0" y="0" fill="#8D8C8C"  height="31.9" stroke-width="0"/>
                <rect width="16.4442" x="7.79153" y="7.73544" fill="#8C8663"  height="16.4151" stroke-width="0"/>
                <polygon fill="#B8AF82" points="0,31.9,7.79153,24.1368,7.79153,6.97162,0,0"  stroke-width="0"/>
                <polygon fill="#80795B" points="24.2079,7.76321,7.90264,7.76321,0,0,31.93,0"  stroke-width="0"/>
                <polygon fill="#5E5B43" points="24.2079,24.1368,24.2079,7.76321,31.93,0,31.93,31.9"  stroke-width="0"/>
                <polygon fill="#9A916C" points="0,31.9,7.87486,24.1368,24.2079,24.1368,31.93,31.9"  stroke-width="0"/>
            </g>
        </g>
        <g  transform="matrix(1, 0, 0, 1, 334.035, 34.05)">
            <g gorn="0.1.8.0"  id="connector10pin" stroke-width="0">
                <rect width="31.93" x="0" y="0" fill="#8D8C8C"  height="31.9" stroke-width="0"/>
                <rect width="16.4442" x="7.79153" y="7.73544" fill="#8C8663"  height="16.4151" stroke-width="0"/>
                <polygon fill="#B8AF82" points="0,31.9,7.79153,24.1368,7.79153,6.97162,0,0"  stroke-width="0"/>
                <polygon fill="#80795B" points="24.2079,7.76321,7.90264,7.76321,0,0,31.93,0"  stroke-width="0"/>
                <polygon fill="#5E5B43" points="24.2079,24.1368,24.2079,7.76321,31.93,0,31.93,31.9"  stroke-width="0"/>
                <polygon fill="#9A916C" points="0,31.9,7.87486,24.1368,24.2079,24.1368,31.93,31.9"  stroke-width="0"/>
            </g>
        </g>
        <g  transform="matrix(1, 0, 0, 1, 434.035, 534.05)">
            <g gorn="0.1.9.0"  id="connector4pin" stroke-width="0">
                <rect width="31.93" x="0" y="0" fill="#8D8C8C"  height="31.9" stroke-width="0"/>
                <rect width="16.4442" x="7.79153" y="7.73544" fill="#8C8663"  height="16.4151" stroke-width="0"/>
                <polygon fill="#B8AF82" points="0,31.9,7.79153,24.1368,7.79153,6.97162,0,0"  stroke-width="0"/>
                <polygon fill="#80795B" points="24.2079,7.76321,7.90264,7.76321,0,0,31.93,0"  stroke-width="0"/>
                <polygon fill="#5E5B43" points="24.2079,24.1368,24.2079,7.76321,31.93,0,31.93,31.9"  stroke-width="0"/>
                <polygon fill="#9A916C" points="0,31.9,7.87486,24.1368,24.2079,24.1368,31.93,31.9"  stroke-width="0"/>
            </g>
        </g>
        <g  transform="matrix(1, 0, 0, 1, 434.035, 34.05)">
            <g gorn="0.1.10.0"  id="connector9pin" stroke-width="0">
                <rect width="31.93" x="0" y="0" fill="#8D8C8C"  height="31.9" stroke-width="0"/>
                <rect width="16.4442" x="7.79153" y="7.73544" fill="#8C8663"  height="16.4151" stroke-width="0"/>
                <polygon fill="#B8AF82" points="0,31.9,7.79153,24.1368,7.79153,6.97162,0,0"  stroke-width="0"/>
                <polygon fill="#80795B" points="24.2079,7.76321,7.90264,7.76321,0,0,31.93,0"  stroke-width="0"/>
                <polygon fill="#5E5B43" points="24.2079,24.1368,24.2079,7.76321,31.93,0,31.93,31.9"  stroke-width="0"/>
                <polygon fill="#9A916C" points="0,31.9,7.87486,24.1368,24.2079,24.1368,31.93,31.9"  stroke-width="0"/>
            </g>
        </g>
        <g  transform="matrix(1, 0, 0, 1, 534.035, 534.05)">
            <g gorn="0.1.11.0"  id="connector5pin" stroke-width="0">
                <rect width="31.93" x="0" y="0" fill="#8D8C8C"  height="31.9" stroke-width="0"/>
                <rect width="16.4442" x="7.79153" y="7.73544" fill="#8C8663"  height="16.4151" stroke-width="0"/>
                <polygon fill="#B8AF82" points="0,31.9,7.79153,24.1368,7.79153,6.97162,0,0"  stroke-width="0"/>
                <polygon fill="#80795B" points="24.2079,7.76321,7.90264,7.76321,0,0,31.93,0"  stroke-width="0"/>
                <polygon fill="#5E5B43" points="24.2079,24.1368,24.2079,7.76321,31.93,0,31.93,31.9"  stroke-width="0"/>
                <polygon fill="#9A916C" points="0,31.9,7.87486,24.1368,24.2079,24.1368,31.93,31.9"  stroke-width="0"/>
            </g>
        </g>
        <g  transform="matrix(1, 0, 0, 1, 534.035, 34.05)">
            <g gorn="0.1.12.0"  id="connector8pin" stroke-width="0">
                <rect width="31.93" x="0" y="0" fill="#8D8C8C"  height="31.9" stroke-width="0"/>
                <rect width="16.4442" x="7.79153" y="7.73544" fill="#8C8663"  height="16.4151" stroke-width="0"/>
                <polygon fill="#B8AF82" points="0,31.9,7.79153,24.1368,7.79153,6.97162,0,0"  stroke-width="0"/>
                <polygon fill="#80795B" points="24.2079,7.76321,7.90264,7.76321,0,0,31.93,0"  stroke-width="0"/>
                <polygon fill="#5E5B43" points="24.2079,24.1368,24.2079,7.76321,31.93,0,31.93,31.9"  stroke-width="0"/>
                <polygon fill="#9A916C" points="0,31.9,7.87486,24.1368,24.2079,24.1368,31.93,31.9"  stroke-width="0"/>
            </g>
        </g>
        <g  transform="matrix(1, 0, 0, 1, 634.035, 534.05)">
            <g gorn="0.1.13.0"  id="connector6pin" stroke-width="0">
                <rect width="31.93" x="0" y="0" fill="#8D8C8C"  height="31.9" stroke-width="0"/>
                <rect width="16.4442" x="7.79153" y="7.73544" fill="#8C8663"  height="16.4151" stroke-width="0"/>
                <polygon fill="#B8AF82" points="0,31.9,7.79153,24.1368,7.79153,6.97162,0,0"  stroke-width="0"/>
                <polygon fill="#80795B" points="24.2079,7.76321,7.90264,7.76321,0,0,31.93,0"  stroke-width="0"/>
                <polygon fill="#5E5B43" points="24.2079,24.1368,24.2079,7.76321,31.93,0,31.93,31.9"  stroke-width="0"/>
                <polygon fill="#9A916C" points="0,31.9,7.87486,24.1368,24.2079,24.1368,31.93,31.9"  stroke-width="0"/>
            </g>
        </g>
        <g  transform="matrix(1, 0, 0, 1, 634.035, 34.05)">
            <g gorn="0.1.14.0"  id="connector7pin" stroke-width="0">
                <rect width="31.93" x="0" y="0" fill="#8D8C8C"  height="31.9" stroke-width="0"/>
                <rect width="16.4442" x="7.79153" y="7.73544" fill="#8C8663"  height="16.4151" stroke-width="0"/>
                <polygon fill="#B8AF82" points="0,31.9,7.79153,24.1368,7.79153,6.97162,0,0"  stroke-width="0"/>
                <polygon fill="#80795B" points="24.2079,7.76321,7.90264,7.76321,0,0,31.93,0"  stroke-width="0"/>
                <polygon fill="#5E5B43" points="24.2079,24.1368,24.2079,7.76321,31.93,0,31.93,31.9"  stroke-width="0"/>
                <polygon fill="#9A916C" points="0,31.9,7.87486,24.1368,24.2079,24.1368,31.93,31.9"  stroke-width="0"/>
            </g>
        </g>
    </g>
</svg>
