<?xml version='1.0' encoding='UTF-8' standalone='no'?>
<!-- Created with Fritzing (http://www.fritzing.org/) -->
<svg xmlns="http://www.w3.org/2000/svg" width="0.372in" x="0in" version="1.2" y="0in"  height="0.343in" viewBox="0 0 372 343" baseProfile="tiny">
    <desc >
        <referenceFile >SOIC-14_pcb.svg</referenceFile>
    </desc>
    <g gorn="0.1"  id="copper1" stroke-width="0">
        <rect width="26" x="23" y="261.5" fill="#F7BD13" gorn="0.1.0"  height="80" stroke="none" id="connector0pad" stroke-width="0"/>
        <rect width="26" x="73" y="261.5" fill="#F7BD13" gorn="0.1.1"  height="80" stroke="none" id="connector1pad" stroke-width="0"/>
        <rect width="26" x="123" y="261.5" fill="#F7BD13" gorn="0.1.2"  height="80" stroke="none" id="connector2pad" stroke-width="0"/>
        <rect width="26" x="173" y="261.5" fill="#F7BD13" gorn="0.1.3"  height="80" stroke="none" id="connector3pad" stroke-width="0"/>
        <rect width="26" x="223" y="261.5" fill="#F7BD13" gorn="0.1.4"  height="80" stroke="none" id="connector4pad" stroke-width="0"/>
        <rect width="26" x="273" y="261.5" fill="#F7BD13" gorn="0.1.5"  height="80" stroke="none" id="connector5pad" stroke-width="0"/>
        <rect width="26" x="323" y="261.5" fill="#F7BD13" gorn="0.1.6"  height="80" stroke="none" id="connector6pad" stroke-width="0"/>
        <rect width="26" x="323" y="0.5" fill="#F7BD13" gorn="0.1.7"  height="80" stroke="none" id="connector7pad" stroke-width="0"/>
        <rect width="26" x="273" y="0.5" fill="#F7BD13" gorn="0.1.8"  height="80" stroke="none" id="connector8pad" stroke-width="0"/>
        <rect width="26" x="223" y="0.5" fill="#F7BD13" gorn="0.1.9"  height="80" stroke="none" id="connector9pad" stroke-width="0"/>
        <rect width="26" x="173" y="0.5" fill="#F7BD13" gorn="0.1.10"  height="80" stroke="none" id="connector10pad" stroke-width="0"/>
        <rect width="26" x="123" y="0.5" fill="#F7BD13" gorn="0.1.11"  height="80" stroke="none" id="connector11pad" stroke-width="0"/>
        <rect width="26" x="73" y="0.5" fill="#F7BD13" gorn="0.1.12"  height="80" stroke="none" id="connector12pad" stroke-width="0"/>
        <rect width="26" x="23" y="0.5" fill="#F7BD13" gorn="0.1.13"  height="80" stroke="none" id="connector13pad" stroke-width="0"/>
    </g>
    <g gorn="0.2"  id="silkscreen" stroke-width="0">
        <g  stroke-width="0">
            <title >element:E$1</title>
            <g  stroke-width="0">
                <title >package:SOIC-14</title>
                <line  stroke="white" stroke-linecap="round" y1="94.374" x1="353" y2="94.374" stroke-width="8" x2="19"/>
                <path fill="none"  stroke="white" stroke-width="8" d="M356.938,247.626A13.1811,13.1811,0,0,0,368,232.626"/>
                <path fill="none"  stroke="white" stroke-width="8" d="M19,94.374A17.0788,17.0787,0,0,0,4,113.311"/>
                <path fill="none"  stroke="white" stroke-width="8" d="M368,109.374A14.9961,14.9961,0,0,0,353,94.374"/>
                <path fill="none"  stroke="white" stroke-width="8" d="M4,236.562A13.1732,13.1732,0,0,0,19,247.626"/>
                <line  stroke="white" stroke-linecap="round" y1="247.626" x1="19" y2="247.626" stroke-width="8" x2="356.938"/>
                <line  stroke="white" stroke-linecap="round" y1="232.626" x1="368" y2="109.374" stroke-width="8" x2="368"/>
                <path fill="none"  stroke="white" stroke-width="8" d="M6,197A25,25,0,1,0,6,147"/>
                <line  stroke="white" stroke-linecap="round" y1="113.811" x1="4" y2="147" stroke-width="8" x2="4"/>
                <line  stroke="white" stroke-linecap="round" y1="236.562" x1="4" y2="197" stroke-width="8" x2="4"/>
            </g>
        </g>
    </g>
</svg>
