<?xml version='1.0' encoding='UTF-8' standalone='no'?>
<!-- Created with Fritzing (http://www.fritzing.org/) -->
<svg xmlns="http://www.w3.org/2000/svg" width="0.173in" x="0in" version="1.2" y="0in"  height="0.338598in" viewBox="0 0 173 338.598" baseProfile="tiny">
    <desc >
        <referenceFile >TSSOP-14_pcb.svg</referenceFile>
    </desc>
    <g gorn="0.1"  id="copper1" stroke-width="0">
        <rect width="13.7795" x="4.61024" y="251.976" fill="#F7BD13" gorn="0.1.0"  height="86.614" stroke="none" id="connector0pad" stroke-width="0"/>
        <rect width="13.7795" x="29.6101" y="251.976" fill="#F7BD13" gorn="0.1.1"  height="86.614" stroke="none" id="connector1pad" stroke-width="0"/>
        <rect width="13.7795" x="54.6101" y="251.976" fill="#F7BD13" gorn="0.1.2"  height="86.614" stroke="none" id="connector2pad" stroke-width="0"/>
        <rect width="13.7795" x="79.6101" y="251.976" fill="#F7BD13" gorn="0.1.3"  height="86.614" stroke="none" id="connector3pad" stroke-width="0"/>
        <rect width="13.7795" x="104.61" y="251.976" fill="#F7BD13" gorn="0.1.4"  height="86.614" stroke="none" id="connector4pad" stroke-width="0"/>
        <rect width="13.7795" x="129.61" y="251.976" fill="#F7BD13" gorn="0.1.5"  height="86.614" stroke="none" id="connector5pad" stroke-width="0"/>
        <rect width="13.7795" x="154.61" y="251.976" fill="#F7BD13" gorn="0.1.6"  height="86.614" stroke="none" id="connector6pad" stroke-width="0"/>
        <g  transform="matrix(-1, 0, 0, -1, 323, 86.6297)">
            <g  stroke-width="0">
                <rect width="13.7795" x="154.61" y="0.00787449" fill="#F7BD13" gorn="0.1.7.0.0"  height="86.614" stroke="none" id="connector7pad" stroke-width="0"/>
            </g>
        </g>
        <g  transform="matrix(-1, 0, 0, -1, 273, 86.6297)">
            <g  stroke-width="0">
                <rect width="13.7795" x="129.61" y="0.00787449" fill="#F7BD13" gorn="0.1.8.0.0"  height="86.614" stroke="none" id="connector8pad" stroke-width="0"/>
            </g>
        </g>
        <g  transform="matrix(-1, 0, 0, -1, 223, 86.6297)">
            <g  stroke-width="0">
                <rect width="13.7795" x="104.61" y="0.00787449" fill="#F7BD13" gorn="0.1.9.0.0"  height="86.614" stroke="none" id="connector9pad" stroke-width="0"/>
            </g>
        </g>
        <g  transform="matrix(-1, 0, 0, -1, 173, 86.6297)">
            <g  stroke-width="0">
                <rect width="13.7795" x="79.6101" y="0.00787449" fill="#F7BD13" gorn="0.1.10.0.0"  height="86.614" stroke="none" id="connector10pad" stroke-width="0"/>
            </g>
        </g>
        <g  transform="matrix(-1, 0, 0, -1, 123, 86.6297)">
            <g  stroke-width="0">
                <rect width="13.7795" x="54.6101" y="0.00787449" fill="#F7BD13" gorn="0.1.11.0.0"  height="86.614" stroke="none" id="connector11pad" stroke-width="0"/>
            </g>
        </g>
        <g  transform="matrix(-1, 0, 0, -1, 73, 86.6297)">
            <g  stroke-width="0">
                <rect width="13.7795" x="29.6101" y="0.00787449" fill="#F7BD13" gorn="0.1.12.0.0"  height="86.614" stroke="none" id="connector12pad" stroke-width="0"/>
            </g>
        </g>
        <g  transform="matrix(-1, 0, 0, -1, 23, 86.6297)">
            <g  stroke-width="0">
                <rect width="13.7795" x="4.61024" y="0.00787449" fill="#F7BD13" gorn="0.1.13.0.0"  height="86.614" stroke="none" id="connector13pad" stroke-width="0"/>
            </g>
        </g>
    </g>
    <g gorn="0.2"  id="silkscreen" stroke-width="0">
        <g  stroke-width="0">
            <title >element:E$1</title>
            <g  stroke-width="0">
                <title >package:TSSOP-14</title>
                <line  stroke="white" stroke-linecap="round" y1="92.5275" x1="170.457" y2="92.5275" stroke-width="5" x2="2.54331"/>
                <line  stroke="white" stroke-linecap="round" y1="246.07" x1="170.457" y2="246.07" stroke-width="5" x2="2.54331"/>
                <line  stroke="white" stroke-linecap="round" y1="92.5275" x1="2.54331" y2="246.07" stroke-width="5" x2="2.54331"/>
                <line  stroke="white" stroke-linecap="round" y1="92.5275" x1="170.457" y2="246.07" stroke-width="5" x2="170.457"/>
                <circle fill="none" cx="27.3465"  cy="217.723" stroke="white" r="13.9292" stroke-width="5"/>
            </g>
        </g>
    </g>
</svg>
